<svg id="Capa_1" enable-background="new 0 0 512 512" height="512" viewBox="0 0 512 512" width="512" xmlns="http://www.w3.org/2000/svg"><g><g><path d="m191 415.34 129.986 87.93c31.677-8.693 60.793-23.574 85.954-43.28v-44.65h44.043c31.375-41.176 50.017-92.577 50.017-148.34 0-135.31-109.69-245-245-245s-245 109.69-245 245c0 55.763 18.642 107.164 50.017 148.34z" fill="#5c45bf"/></g><g><g><path d="m451 20v395.34c-12.72 16.7-27.54 31.72-44.06 44.66h-85.94l-121.9-431.35-8.1-28.65h240c11.05 0 20 8.95 20 20z" fill="#edf8fc"/></g><g><path d="m361 0h-170l130 460h40c-5.523 0-10-4.477-10-10s4.477-10 10-10v-420c-5.523 0-10-4.477-10-10s4.477-10 10-10z" fill="#d0f0fc"/></g><g><g><path d="m411 20h-180c0 11.046-8.954 20-20 20v380c11.046 0 20 8.954 20 20h180c0-11.046 8.954-20 20-20v-380c-11.046 0-20-8.954-20-20zm5 388.38c-7.267 3.461-13.159 9.353-16.62 16.62h-156.76c-3.461-7.267-9.353-13.159-16.62-16.62v-356.76c7.267-3.461 13.159-9.353 16.62-16.62h156.76c3.461 7.267 9.353 13.159 16.62 16.62z" fill="#d0f0fc"/></g><g><path d="m353.5 432.5c0-4.142 3.358-7.5 7.5-7.5h-118.38c-3.461-7.267-9.353-13.159-16.62-16.62v-356.76c7.267-3.461 13.159-9.353 16.62-16.62h118.38c-4.142 0-7.5-3.358-7.5-7.5s3.358-7.5 7.5-7.5h-130c0 11.046-8.954 20-20 20v380c11.046 0 20 8.954 20 20h130c-4.142 0-7.5-3.358-7.5-7.5z" fill="#9bd8f9"/></g></g><g><g><path d="m391.5 175.438h-117.5c-4.142 0-7.5-3.358-7.5-7.5s3.358-7.5 7.5-7.5h117.5c4.142 0 7.5 3.358 7.5 7.5s-3.358 7.5-7.5 7.5z" fill="#9bd8f9"/></g><g><path d="m391.5 206.812h-117.5c-4.142 0-7.5-3.358-7.5-7.5s3.358-7.5 7.5-7.5h117.5c4.142 0 7.5 3.358 7.5 7.5s-3.358 7.5-7.5 7.5z" fill="#9bd8f9"/></g></g><g><g><path d="m391.5 360.938h-117.5c-4.142 0-7.5-3.358-7.5-7.5s3.358-7.5 7.5-7.5h117.5c4.142 0 7.5 3.358 7.5 7.5s-3.358 7.5-7.5 7.5z" fill="#9bd8f9"/></g><g><path d="m391.5 392.312h-117.5c-4.142 0-7.5-3.358-7.5-7.5s3.358-7.5 7.5-7.5h117.5c4.142 0 7.5 3.358 7.5 7.5s-3.358 7.5-7.5 7.5z" fill="#9bd8f9"/></g></g><g><path d="m243.215 52h145.785c5.523 0 10 4.477 10 10v57.75c0 5.523-4.477 10-10 10h-145.785z" fill="#d0f0fc"/></g><g><path d="m243.215 52h117.785v77.75h-117.785z" fill="#9bd8f9"/></g><g><path d="m243.215 237.5h145.785c5.523 0 10 4.477 10 10v57.75c0 5.523-4.477 10-10 10h-145.785z" fill="#d0f0fc"/></g><g><path d="m243.215 237.5h117.785v77.75h-117.785z" fill="#9bd8f9"/></g><g><path d="m321 52-130 52v-104z" fill="#1787e2"/></g><g><path d="m321 52v451.28c-20.7 5.69-42.49 8.72-65 8.72-79.55 0-150.24-37.91-195-96.66v-343.34c0-11.05 8.95-20 20-20z" fill="#73c3f9"/></g><g><path d="m138.43 72v409.99c-30.27-16.58-56.65-39.37-77.43-66.65v-343.34c0-11.05 8.95-20 20-20h57.43c-3.69 0-6.91 2-8.64 4.97-.87 1.48-1.36 3.2-1.36 5.03 0 5.52 4.48 10 10 10z" fill="#1e9ef4"/></g><g><path d="m281 72h-180c0 2.1-.32 4.12-.92 6.02-2.17 6.88-7.96 12.16-15.14 13.59-1.27.26-2.59.39-3.94.39v346.46c4.8 4.9 9.8 9.6 15 14.08v-348.92c7.27-3.46 13.16-9.35 16.62-16.62h156.76c3.46 7.27 9.35 13.16 16.62 16.62v356.76c-7.27 3.46-13.16 9.35-16.62 16.62h-139.63c9.33 5.63 19.06 10.65 29.15 15h122.1c0-11.05 8.95-20 20-20v-380c-11.05 0-20-8.95-20-20z" fill="#1e9ef4"/></g><g><path d="m246 325.143h-110c-8.284 0-15-6.716-15-15 0-8.284 6.716-15 15-15h110c8.284 0 15 6.716 15 15 0 8.284-6.716 15-15 15z" fill="#d0f0fc"/></g><g><path d="m161 310.143c0-8.284 6.716-15 15-15h-40c-8.284 0-15 6.716-15 15 0 8.284 6.716 15 15 15h40c-8.284 0-15-6.716-15-15z" fill="#9bd8f9"/></g><g><g><path d="m251 372.643h-120c-4.142 0-7.5-3.358-7.5-7.5s3.358-7.5 7.5-7.5h120c4.142 0 7.5 3.358 7.5 7.5s-3.358 7.5-7.5 7.5z" fill="#9bd8f9"/></g><g><path d="m251 404.018h-120c-4.142 0-7.5-3.358-7.5-7.5s3.358-7.5 7.5-7.5h120c4.142 0 7.5 3.358 7.5 7.5s-3.358 7.5-7.5 7.5z" fill="#9bd8f9"/></g><g><path d="m231 435.393h-80c-4.142 0-7.5-3.358-7.5-7.5s3.358-7.5 7.5-7.5h80c4.142 0 7.5 3.358 7.5 7.5s-3.358 7.5-7.5 7.5z" fill="#9bd8f9"/></g></g><g><path d="m138.43 87h-25.81c-3.46 7.27-9.35 13.16-16.62 16.62v348.92c-5.2-4.48-10.2-9.18-15-14.08v-346.46c1.35 0 2.67-.13 3.94-.39 7.18-1.43 12.97-6.71 15.14-13.59.6-1.9.92-3.92.92-6.02h37.43c-4.14 0-7.5 3.36-7.5 7.5s3.36 7.5 7.5 7.5z" fill="#1787e2"/></g><g><g><path d="m152.662 238h76.676l23.299-19.653c5.334-9.88 8.363-21.188 8.363-33.204 0-38.66-31.34-70-70-70s-70 31.34-70 70c0 12.016 3.029 23.324 8.363 33.204z" fill="#1787e2"/></g><g><path d="m132.581 223.715c-1.149-1.737-2.224-3.527-3.218-5.368v-61.289h17.143v71.657l-13.924-5z" fill="#d0f0fc"/></g><g><path d="m129.363 157.058v20c0-1.578 1.279-2.857 2.857-2.857s2.857 1.279 2.857 2.857h5.714c0-1.578 1.279-2.857 2.857-2.857s2.857 1.279 2.857 2.857v-20z" fill="#9bd8f9"/></g><g><path d="m135.077 224.61v-67.552h5.715v69.604z" fill="#edf8fc"/></g><g><path d="m132.582 223.714h13.924v12.857l-7.24-4.286c-2.44-2.675-4.678-5.539-6.684-8.571z" fill="#d0f0fc"/></g><g><path d="m135.077 157.058v20c0-1.578 1.279-2.857 2.857-2.857s2.857 1.279 2.857 2.857v-20z" fill="#d0f0fc"/></g><g><path d="m129.363 147.058h17.143v12.857h-17.143z" fill="#d0f0fc"/></g><g><circle cx="146.506" cy="157.058" fill="#edf8fc" r="5.714"/></g><g><circle cx="129.363" cy="157.058" fill="#edf8fc" r="5.714"/></g><g><circle cx="146.506" cy="226.571" fill="#edf8fc" r="5.714"/></g><g><path d="m164.74 157.058h17.143v71.657h-17.143z" fill="#d0f0fc"/></g><g><path d="m164.74 157.058v20c0-1.578 1.279-2.857 2.857-2.857s2.857 1.279 2.857 2.857h5.714c0-1.578 1.279-2.857 2.857-2.857s2.857 1.279 2.857 2.857v-20z" fill="#9bd8f9"/></g><g><path d="m170.454 157.058h5.714v71.657h-5.714z" fill="#edf8fc"/></g><g><path d="m170.454 157.058v20c0-1.578 1.279-2.857 2.857-2.857s2.857 1.279 2.857 2.857v-20z" fill="#d0f0fc"/></g><g><path d="m164.74 147.058h17.143v12.857h-17.143z" fill="#d0f0fc"/></g><g><circle cx="181.883" cy="157.058" fill="#edf8fc" r="5.714"/></g><g><circle cx="164.74" cy="157.058" fill="#edf8fc" r="5.714"/></g><g><path d="m164.74 223.714h17.143v12.857h-17.143z" fill="#d0f0fc" transform="matrix(-1 0 0 -1 346.623 460.286)"/></g><g><circle cx="164.74" cy="226.571" fill="#edf8fc" r="5.714"/></g><g><circle cx="181.883" cy="226.571" fill="#edf8fc" r="5.714"/></g><g><path d="m200.117 157.058h17.143v71.657h-17.143z" fill="#d0f0fc"/></g><g><path d="m200.117 157.058v20c0-1.578 1.279-2.857 2.857-2.857s2.857 1.279 2.857 2.857h5.714c0-1.578 1.279-2.857 2.857-2.857s2.857 1.279 2.857 2.857v-20z" fill="#9bd8f9"/></g><g><path d="m205.831 157.058h5.714v71.657h-5.714z" fill="#edf8fc"/></g><g><path d="m205.831 157.058v20c0-1.578 1.279-2.857 2.857-2.857s2.857 1.279 2.857 2.857v-20z" fill="#d0f0fc"/></g><g><path d="m200.117 147.058h17.143v12.857h-17.143z" fill="#d0f0fc"/></g><g><circle cx="217.26" cy="157.058" fill="#edf8fc" r="5.714"/></g><g><circle cx="200.117" cy="157.058" fill="#edf8fc" r="5.714"/></g><g><path d="m200.117 223.714h17.143v12.857h-17.143z" fill="#d0f0fc" transform="matrix(-1 0 0 -1 417.377 460.286)"/></g><g><circle cx="200.117" cy="226.571" fill="#edf8fc" r="5.714"/></g><g><circle cx="217.26" cy="226.571" fill="#edf8fc" r="5.714"/></g><g><path d="m249.419 223.715c1.149-1.737 2.224-3.527 3.218-5.368v-61.289h-17.143v71.657l13.924-5z" fill="#d0f0fc"/></g><g><path d="m252.637 157.058v20c0-1.578-1.279-2.857-2.857-2.857s-2.857 1.279-2.857 2.857h-5.714c0-1.578-1.279-2.857-2.857-2.857s-2.857 1.279-2.857 2.857v-20z" fill="#9bd8f9"/></g><g><path d="m246.923 224.61v-67.552h-5.715v69.604z" fill="#edf8fc"/></g><g><path d="m249.418 223.714h-13.924v12.857l7.24-4.286c2.44-2.675 4.678-5.539 6.684-8.571z" fill="#d0f0fc"/></g><g><path d="m246.923 157.058v20c0-1.578-1.279-2.857-2.857-2.857s-2.857 1.279-2.857 2.857v-20z" fill="#d0f0fc"/></g><g><path d="m235.494 147.058h17.143v12.857h-17.143z" fill="#d0f0fc" transform="matrix(-1 0 0 -1 488.131 306.973)"/></g><g><circle cx="235.494" cy="157.058" fill="#edf8fc" r="5.714"/></g><g><circle cx="252.637" cy="157.058" fill="#edf8fc" r="5.714"/></g><g><circle cx="235.494" cy="226.571" fill="#edf8fc" r="5.714"/></g><g><path d="m246.923 113.143h-111.846c-3.156 0-5.714 2.558-5.714 5.714v19.629h123.274v-19.629c0-3.156-2.558-5.714-5.714-5.714z" fill="#d0f0fc"/></g><g><path d="m133.649 138.486v-19.629c0-.788.641-1.429 1.429-1.429h111.845c.788 0 1.429.641 1.429 1.429v19.629z" fill="#9bd8f9"/></g><g><path d="m194.752 108.857h-7.505c-1.291 0-2.566.292-3.729.854l-59.911 28.944c-1.435.693-2.025 2.425-1.313 3.85l3.235 6.469c.726 1.452 2.21 2.369 3.833 2.369h123.274c1.623 0 3.107-.917 3.833-2.369l3.234-6.469c.712-1.425.122-3.157-1.313-3.85l-59.911-28.944c-1.161-.562-2.435-.854-3.727-.854z" fill="#edf8fc"/></g><g><path d="m129.363 147.058-2.587-5.174 58.607-28.314c.578-.279 1.222-.427 1.864-.427h7.504c.642 0 1.286.148 1.864.427l58.608 28.315-2.587 5.174h-123.273z" fill="#d0f0fc"/></g><g><path d="m188.236 144.293c0-1.527 1.238-2.764 2.764-2.764v-22.857c-1.527 0-2.764-1.238-2.764-2.764s1.238-2.764 2.764-2.764h-3.752c-.642 0-1.286.148-1.864.427l-58.607 28.314 2.587 5.174h61.636c-1.527-.001-2.764-1.239-2.764-2.766z" fill="#9bd8f9"/></g><g><path d="m223.143 137.243h-11.429c1.183 0 2.143-.959 2.143-2.143s-.959-2.143-2.143-2.143h-41.429c-1.183 0-2.143.959-2.143 2.143s.959 2.143 2.143 2.143h-11.429c-1.183 0-2.143.959-2.143 2.143s.959 2.143 2.143 2.143h64.286c1.183 0 2.143-.959 2.143-2.143s-.959-2.143-2.142-2.143z" fill="#edf8fc"/></g><g><path d="m191 132.957h-20.714c-1.183 0-2.143.959-2.143 2.143s.959 2.143 2.143 2.143h-11.429c-1.183 0-2.143.959-2.143 2.143s.959 2.143 2.143 2.143h32.143z" fill="#d0f0fc"/></g><g><circle cx="191" cy="130.1" fill="#edf8fc" r="11.429"/></g><g><path d="m191 118.672c-6.312 0-11.429 5.117-11.429 11.429s5.117 11.429 11.429 11.429c-1.183 0-2.143-.959-2.143-2.143s.959-2.143 2.143-2.143v-14.286c-1.183 0-2.143-.959-2.143-2.143s.96-2.143 2.143-2.143z" fill="#d0f0fc"/></g><g><circle cx="191" cy="130.1" fill="#d0f0fc" r="7.143"/></g><g><path d="m191 122.957c-3.939 0-7.143 3.204-7.143 7.143s3.204 7.143 7.143 7.143c0 0-2.632-2.222-2.632-7.143s2.632-7.143 2.632-7.143z" fill="#9bd8f9"/></g><g><path d="m139.256 232.286c3.963 4.347 8.468 8.19 13.406 11.429l38.338 5.714 38.338-5.714c4.938-3.239 9.443-7.081 13.406-11.429z" fill="#edf8fc"/></g><g><path d="m185.286 238c0-3.156 2.558-5.714 5.714-5.714h-51.744c3.963 4.347 8.468 8.19 13.406 11.429l38.338 5.714v-5.714c-3.156-.001-5.714-2.559-5.714-5.715z" fill="#d0f0fc"/></g><g><path d="m152.662 243.714c11.013 7.223 24.184 11.429 38.338 11.429s27.325-4.205 38.338-11.429z" fill="#d0f0fc"/></g><g><path d="m185.286 249.429c0-3.156 2.558-5.714 5.714-5.714h-38.338c11.013 7.223 24.184 11.429 38.338 11.429-3.156-.001-5.714-2.56-5.714-5.715z" fill="#9bd8f9"/></g></g></g></g></svg>